name ./resultDataOpenSim/trcMotMarkerGrf/sub10/grf-15-08.mot
datacolumns 19
datarows 20
range 1.52000000 1.59600000
endheader

                time	     ground_force_vx	     ground_force_vy	     ground_force_vz	     ground_force_px	     ground_force_py	     ground_force_pz	   l_ground_force_vx	   l_ground_force_vy	   l_ground_force_vz	   l_ground_force_px	   l_ground_force_py	   l_ground_force_pz	     ground_torque_x	     ground_torque_y	     ground_torque_z	   l_ground_torque_x	   l_ground_torque_y	   l_ground_torque_z	
          1.52000000	          0.84707564	        335.23552703	        -16.00824484	          0.81346814	          0.00000000	          0.02788425	          0.00000000	          0.00000000	          0.00000000	          0.00000000	          0.00000000	          0.00000000	          0.00000000	          1.69604691	          0.00000000	          0.00000000	          0.00000000	          0.00000000	
          1.52400000	          1.68983308	        334.70319435	        -15.83360466	          0.81399153	          0.00000000	          0.02787034	          0.00000000	          0.00000000	          0.00000000	          0.00000000	          0.00000000	          0.00000000	          0.00000000	          1.68914950	          0.00000000	          0.00000000	          0.00000000	          0.00000000	
          1.52800000	          3.41261408	        334.91245433	        -16.01626891	          0.81420477	          0.00000000	          0.02787525	          0.00000000	          0.00000000	          0.00000000	          0.00000000	          0.00000000	          0.00000000	          0.00000000	          1.71802206	          0.00000000	          0.00000000	          0.00000000	          0.00000000	
          1.53200000	          5.83983151	        335.90091206	        -16.55431586	          0.81414335	          0.00000000	          0.02790146	          0.00000000	          0.00000000	          0.00000000	          0.00000000	          0.00000000	          0.00000000	          0.00000000	          1.78307162	          0.00000000	          0.00000000	          0.00000000	          0.00000000	
          1.53600000	          8.62997592	        337.73941932	        -17.39043742	          0.81388625	          0.00000000	          0.02794411	          0.00000000	          0.00000000	          0.00000000	          0.00000000	          0.00000000	          0.00000000	          0.00000000	          1.87956979	          0.00000000	          0.00000000	          0.00000000	          0.00000000	
          1.54000000	         11.36962050	        340.51123188	        -18.41933303	          0.81355673	          0.00000000	          0.02799078	          0.00000000	          0.00000000	          0.00000000	          0.00000000	          0.00000000	          0.00000000	          0.00000000	          1.99839370	          0.00000000	          0.00000000	          0.00000000	          0.00000000	
          1.54400000	         13.69443401	        344.27275814	        -19.49819892	          0.81328665	          0.00000000	          0.02802435	          0.00000000	          0.00000000	          0.00000000	          0.00000000	          0.00000000	          0.00000000	          0.00000000	          2.12828480	          0.00000000	          0.00000000	          0.00000000	          0.00000000	
          1.54800000	         15.39315199	        349.01398338	        -20.46540618	          0.81315136	          0.00000000	          0.02802884	          0.00000000	          0.00000000	          0.00000000	          0.00000000	          0.00000000	          0.00000000	          0.00000000	          2.25857272	          0.00000000	          0.00000000	          0.00000000	          0.00000000	
          1.55200000	         16.45276845	        354.65928096	        -21.17041514	          0.81314862	          0.00000000	          0.02799665	          0.00000000	          0.00000000	          0.00000000	          0.00000000	          0.00000000	          0.00000000	          0.00000000	          2.38116764	          0.00000000	          0.00000000	          0.00000000	          0.00000000	
          1.55600000	         17.04103216	        361.11331153	        -21.51075433	          0.81323596	          0.00000000	          0.02792772	          0.00000000	          0.00000000	          0.00000000	          0.00000000	          0.00000000	          0.00000000	          0.00000000	          2.49131955	          0.00000000	          0.00000000	          0.00000000	          0.00000000	
          1.56000000	         17.45163836	        368.30770371	        -21.46337669	          0.81336085	          0.00000000	          0.02782496	          0.00000000	          0.00000000	          0.00000000	          0.00000000	          0.00000000	          0.00000000	          0.00000000	          2.58753702	          0.00000000	          0.00000000	          0.00000000	          0.00000000	
          1.56400000	         18.03173740	        376.21004137	        -21.09605064	          0.81346789	          0.00000000	          0.02769678	          0.00000000	          0.00000000	          0.00000000	          0.00000000	          0.00000000	          0.00000000	          0.00000000	          2.67142380	          0.00000000	          0.00000000	          0.00000000	          0.00000000	
          1.56800000	         19.09738577	        384.80013548	        -20.55333184	          0.81350865	          0.00000000	          0.02756132	          0.00000000	          0.00000000	          0.00000000	          0.00000000	          0.00000000	          0.00000000	          0.00000000	          2.74779918	          0.00000000	          0.00000000	          0.00000000	          0.00000000	
          1.57200000	         20.85186468	        394.04740071	        -20.02376487	          0.81344998	          0.00000000	          0.02744113	          0.00000000	          0.00000000	          0.00000000	          0.00000000	          0.00000000	          0.00000000	          0.00000000	          2.82472396	          0.00000000	          0.00000000	          0.00000000	          0.00000000	
          1.57600000	         23.33577443	        403.91019445	        -19.69990348	          0.81328344	          0.00000000	          0.02735009	          0.00000000	          0.00000000	          0.00000000	          0.00000000	          0.00000000	          0.00000000	          0.00000000	          2.91264619	          0.00000000	          0.00000000	          0.00000000	          0.00000000	
          1.58000000	         26.42926729	        414.35006399	        -19.74258995	          0.81303282	          0.00000000	          0.02728967	          0.00000000	          0.00000000	          0.00000000	          0.00000000	          0.00000000	          0.00000000	          0.00000000	          3.02221745	          0.00000000	          0.00000000	          0.00000000	          0.00000000	
          1.58400000	         29.90206616	        425.34250845	        -20.25819533	          0.81274838	          0.00000000	          0.02725579	          0.00000000	          0.00000000	          0.00000000	          0.00000000	          0.00000000	          0.00000000	          0.00000000	          3.16121817	          0.00000000	          0.00000000	          0.00000000	          0.00000000	
          1.58800000	         33.48813122	        436.87086478	        -21.28739972	          0.81248320	          0.00000000	          0.02724721	          0.00000000	          0.00000000	          0.00000000	          0.00000000	          0.00000000	          0.00000000	          0.00000000	          3.33180510	          0.00000000	          0.00000000	          0.00000000	          0.00000000	
          1.59200000	         36.96054181	        448.91387082	        -22.79852022	          0.81226547	          0.00000000	          0.02726865	          0.00000000	          0.00000000	          0.00000000	          0.00000000	          0.00000000	          0.00000000	          0.00000000	          3.52933493	          0.00000000	          0.00000000	          0.00000000	          0.00000000	
          1.59600000	         40.18700338	        461.44834193	        -24.68727732	          0.81210758	          0.00000000	          0.02731756	          0.00000000	          0.00000000	          0.00000000	          0.00000000	          0.00000000	          0.00000000	          0.00000000	          3.74327432	          0.00000000	          0.00000000	          0.00000000	          0.00000000	
